<?xml version="1.0" encoding="utf-8"?>
<!-- Svg Vector Icons : http://www.onlinewebfonts.com/icon -->
<!DOCTYPE svg PUBLIC "-//W3C//DTD SVG 1.1//EN" "http://www.w3.org/Graphics/SVG/1.1/DTD/svg11.dtd">
<svg version="1.1" xmlns="http://www.w3.org/2000/svg" xmlns:xlink="http://www.w3.org/1999/xlink" x="0px" y="0px" viewBox="0 0 1000 1000" enable-background="new 0 0 1000 1000" xml:space="preserve">
<metadata> Svg Vector Icons : http://www.onlinewebfonts.com/icon </metadata>
<g><g><g><path d="M934.2,65.7C897.1,28.6,852.2,10,799.4,10H200.6c-52.7,0-97.7,18.6-134.8,55.7C28.6,102.9,10,147.8,10,200.6v598.9c0,52.2,18.6,97,55.7,134.4c37.1,37.4,82.1,56.1,134.8,56.1h598.9c52.7,0,97.7-18.7,134.8-56.1c37.2-37.4,55.7-82.2,55.7-134.4V200.6C990,147.8,971.4,102.9,934.2,65.7z M881.1,799.5c0,22.7-8,42-23.8,57.8c-15.9,15.9-35.2,23.8-57.8,23.8H200.6c-22.7,0-42-7.9-57.8-23.8c-15.9-15.9-23.8-35.2-23.8-57.8V200.6c0-22.7,7.9-42,23.8-57.8c15.9-15.9,35.2-23.8,57.8-23.8h598.9c22.7,0,42,7.9,57.8,23.8c15.9,15.9,23.8,35.2,23.8,57.8V799.5z"/><path d="M745,445.6H554.5V255c0-7.9-2.5-14.5-7.7-19.6c-5.1-5.1-11.6-7.7-19.6-7.7h-54.4c-7.9,0-14.5,2.5-19.6,7.7c-5.1,5.1-7.7,11.6-7.7,19.6v190.6H255c-7.9,0-14.5,2.5-19.6,7.7c-5.1,5.1-7.7,11.6-7.7,19.6v54.4c0,7.9,2.5,14.5,7.7,19.6c5.1,5.1,11.6,7.7,19.6,7.7h190.6V745c0,7.9,2.5,14.5,7.7,19.6c5.1,5.1,11.6,7.6,19.6,7.6h54.4c8,0,14.5-2.5,19.6-7.6c5.1-5.1,7.7-11.6,7.7-19.6V554.4H745c7.9,0,14.5-2.6,19.6-7.7c5.1-5.1,7.6-11.6,7.6-19.6v-54.4c0-7.9-2.5-14.5-7.6-19.6C759.5,448.1,752.9,445.6,745,445.6z"/></g></g><g></g><g></g><g></g><g></g><g></g><g></g><g></g><g></g><g></g><g></g><g></g><g></g><g></g><g></g><g></g></g>
</svg>