<?xml version="1.0" encoding="UTF-8"?><svg xmlns="http://www.w3.org/2000/svg" xmlns:xlink="http://www.w3.org/1999/xlink" viewBox="0 0 26 26" version="1.1" fill="#000000"><g id="surface1" fill="#000000"><path style=" " d="M 19.84375 -0.03125 C 19.546875 -0.0117188 19.375 0.21875 19.3125 0.40625 L 13.28125 11.21875 L 12.90625 11.09375 C 12.707031 10.992188 12.386719 10.992188 12.1875 11.09375 L 1.59375 15 C 1.292969 15.199219 1 15.507813 1 15.90625 L 1 19.5 C 1 19.898438 1.195313 20.207031 1.59375 20.40625 L 13.6875 25.90625 C 13.789063 25.90625 13.894531 26 14.09375 26 C 14.292969 26 14.300781 26.007813 14.5 25.90625 L 24.59375 20.40625 C 24.894531 20.304688 25.1875 19.898438 25.1875 19.5 L 25 15.90625 C 25 15.507813 24.710938 15.101563 24.3125 15 L 19 13.1875 L 17.40625 14.8125 L 21.3125 16.09375 L 19 17.3125 L 16 16.1875 L 15 17.3125 L 17.3125 18.1875 L 14 19.90625 L 4.6875 16 L 8.40625 14.59375 L 10.8125 15.59375 L 10.3125 16.5 L 11.40625 17.09375 L 21 1.40625 C 21.199219 1.105469 21.199219 0.6875 20.5 0.1875 C 20.238281 0 20.023438 -0.0429688 19.84375 -0.03125 Z M 24.96875 3.34375 C 24.65625 3.3125 24.4375 3.5 24.3125 3.6875 L 16.4375 12.34375 L 15.40625 12 L 14.40625 13.8125 L 14.9375 13.96875 L 13.75 15.28125 L 13.5 15.1875 L 12.6875 16.40625 L 12.71875 16.40625 L 11.90625 17.3125 L 12.8125 18.09375 L 25.8125 5 C 26.011719 4.800781 26.195313 4.289063 25.59375 3.6875 C 25.367188 3.460938 25.15625 3.363281 24.96875 3.34375 Z M 12.15625 13.21875 L 11.4375 14.5 L 10.09375 14 Z " fill="#000000"/></g></svg>