<svg xmlns="http://www.w3.org/2000/svg" viewBox="0 0 300 300"><g id="Layer_2"><g id="Layer_1-2"><rect width="300" height="300" rx="40.279" style="fill:#fbe300"></rect><path d="M124.827,121.227l-8.222,25.083,16.818-.049-8.381-25.034A.113.113,0,0,0,124.827,121.227Z" style="fill:#3b1e1e"></path><path d="M148.843,46.549C85.272,46.732,33.854,87.6,34,137.816c.093,32.29,21.484,60.59,53.643,76.631l-10.732,40.56a3.3,3.3,0,0,0,5.183,3.637l46.574-31.633a146.219,146.219,0,0,0,20.7,1.409c63.57-.183,114.989-41.041,114.845-91.265S212.414,46.367,148.843,46.549ZM91.068,161.728c.01,3.552-2.093,5.767-5.491,5.777s-5.509-2.193-5.519-5.745l-.115-39.985-11.581.034c-3.633.01-4.93-2.681-4.937-4.989a4.872,4.872,0,0,1,4.908-5.032l34.165-.1a4.877,4.877,0,0,1,4.948,5c.006,2.307-1.278,5.006-4.919,5.016l-11.574.034Zm53.291,5.612a5.123,5.123,0,0,1-5.383-3.809l-2.429-7.523-23.007.066-2.445,7.451a5.03,5.03,0,0,1-5.284,3.926,5.206,5.206,0,0,1-5.433-5.075,6.412,6.412,0,0,1,.5-2.419l15.86-42.382c1.136-3.107,3.878-6.427,8.172-6.439,3.773-.011,6.769,2.314,8.219,6.379l15.612,42.225a9.153,9.153,0,0,1,.631,2.826A4.844,4.844,0,0,1,144.359,167.34Zm42.286-5.549a5.026,5.026,0,0,1-5.248,4.823l-20.522.058c-3.6.011-5.763-2.262-5.774-6.077l-.126-43.8c-.01-3.546,2.094-5.756,5.491-5.765s5.51,2.187,5.521,5.734l.114,39.873,15.268-.044a5.278,5.278,0,0,1,3.969,1.522A4.941,4.941,0,0,1,186.645,161.791Zm45.848.969c-.418,4.011-4.3,4.333-5.482,4.336a8.548,8.548,0,0,1-.86-.04c-2.034-.2-3.181-1.477-5.314-4.339l-14.522-19.678-3.945,4.046.043,14.824a5.268,5.268,0,0,1-5.488,5.276c-3.3.01-5.518-2.1-5.527-5.245l-.131-45.575a5.29,5.29,0,0,1,5.5-5.44,5.174,5.174,0,0,1,5.519,5.408l.05,17.645,19.335-20.272a6.144,6.144,0,0,1,4.374-2.024c2.661.063,5.342,1.823,5.281,5.062,0,1.514-.9,2.516-2.7,4.511-.407.452-.856.95-1.342,1.508l-13.217,13.412,15.739,20.485C231.432,158.769,232.78,160.514,232.493,162.76Z" style="fill:#3b1e1e"></path></g></g></svg>